<svg width="62" height="18" viewBox="0 0 62 18" fill="none" xmlns="http://www.w3.org/2000/svg">
    <path d="M8.71401 18C8.2904 17.9976 7.86941 17.9312 7.46438 17.803C7.02022 17.6622 6.5909 17.4756 6.18293 17.2459C5.62504 16.9495 5.09208 16.6055 4.58961 16.2175C4.13735 15.8515 3.70991 15.4539 3.31028 15.0275C2.76897 14.4681 2.26402 13.896 1.84879 13.3705C1.38955 12.8112 0.993016 12.2 0.666757 11.5485L0.639176 11.489V11.4871L0.632811 11.4734V11.4702V11.4671L0.600684 11.396L0.598562 11.3913L0.596441 11.3866L0.566132 11.318L0.562192 11.3093V11.3068L0.539763 11.2554L0.532792 11.2394L0.52764 11.2272L0.523397 11.2175V11.2156L0.500059 11.1608L0.497634 11.1546L0.49127 11.1486L0.463689 11.0822L0.459142 11.0713L0.432168 11.0039L0.430349 10.9995L0.428531 10.9952L0.403071 10.9294L0.400041 10.9216L0.37549 10.8567V10.8546L0.372157 10.8458L0.348819 10.7832L0.346697 10.7769L0.343969 10.7697C0.336695 10.7496 0.329724 10.7296 0.32245 10.7089V10.7049L0.318207 10.6926C0.310024 10.6695 0.303659 10.6504 0.2979 10.6335V10.6297L0.293354 10.6156L0.269713 10.5536L0.263955 10.5354L0.245466 10.4778L0.242435 10.4687L0.240011 10.4597C0.233343 10.4384 0.227887 10.4199 0.222735 10.403L0.217582 10.3851L0.202731 10.3344L0.200003 10.3247V10.3228L0.196972 10.3118L0.181818 10.2617L0.179393 10.2533L0.176969 10.2404C0.171816 10.2207 0.16727 10.2035 0.163027 10.1872L0.159996 10.1778L0.157268 10.1675C0.153328 10.1515 0.148782 10.1343 0.144235 10.1149L0.139689 10.0961V10.0917C0.136355 10.0776 0.131809 10.0604 0.127566 10.0403L0.121201 10.0156C0.117564 10.0002 0.113927 9.98427 0.109987 9.96486L0.107562 9.95296L0.104834 9.94043C0.101197 9.92352 0.0978631 9.90661 0.0945292 9.89001L0.0908921 9.86684C0.0884674 9.85494 0.0863458 9.84303 0.0839211 9.83113V9.82487V9.81955V9.81767L0.0793748 9.79262V9.78948L0.07301 9.75284C0.0708884 9.74126 0.0690699 9.72967 0.0672514 9.71808L0.0611896 9.67988C0.0593711 9.66892 0.0578557 9.65796 0.0560372 9.64856C0.0542186 9.63917 0.052097 9.62132 0.0499754 9.60754L0.0481569 9.59407L0.0463384 9.5806C0.0442168 9.56463 0.0420952 9.54929 0.0402766 9.53332L0.0333057 9.50889V9.50451C0.0302748 9.48634 0.0302748 9.47131 0.0272439 9.45753C0.0272439 9.44908 0.0254254 9.44062 0.0245161 9.43217V9.42903C0.0230007 9.414 0.0214853 9.39772 0.0199698 9.38269C0.0199698 9.37392 0.0184544 9.36483 0.0175451 9.35607V9.35419C0.0163328 9.34124 0.0152215 9.3283 0.0142112 9.31536C0.0142112 9.30377 0.0123927 9.29249 0.0117865 9.28091C0.0111803 9.26932 0.0102711 9.25805 0.00936181 9.24677C0.00936181 9.23393 0.00784638 9.22109 0.0072402 9.20794C0.00663403 9.19479 0.0072402 9.18633 0.00542168 9.17662C0.00360316 9.16691 0.00542168 9.15063 0.00390625 9.13779V9.13591C0.00390625 9.12495 0.00390625 9.11399 0.00390625 9.10303C0.00390625 9.09207 0.00390625 9.08581 0.00390625 9.07735V9.06482C0.00390625 9.05292 0.00390625 9.04071 0.00390625 9.02881C0.00390625 9.01691 0.00390625 9.00939 0.00390625 8.99969V8.92672C0.00390625 8.91169 0.00390625 8.89666 0.00390625 8.88162C0.00390625 8.87098 0.00390625 8.86033 0.00390625 8.85031C0.00390625 8.84029 0.00390625 8.82369 0.00390625 8.81022C0.00390625 8.80271 0.00390625 8.7955 0.00390625 8.78799V8.77703C0.00390625 8.76012 0.00390625 8.74571 0.00602786 8.73131C0.00602786 8.72285 0.00602786 8.71408 0.00602786 8.70563C0.00602786 8.69185 0.00754329 8.67713 0.00875564 8.65959C0.00875564 8.65145 0.00875564 8.64299 0.0105742 8.63485C0.0105742 8.61919 0.0129988 8.60353 0.0142112 8.58788V8.57253V8.56157C0.0156256 8.54591 0.017141 8.53025 0.0187575 8.5146L0.0211822 8.48986V8.48485C0.0211822 8.47075 0.0242131 8.45541 0.0266377 8.43725C0.0266377 8.43161 0.0266377 8.42597 0.0287594 8.42033V8.41219V8.40906C0.0305779 8.3934 0.0326995 8.37774 0.0348211 8.36209L0.037852 8.33985C0.0402766 8.32294 0.0427013 8.30603 0.045126 8.28943L0.0481569 8.27064V8.26782C0.0505816 8.25216 0.0533094 8.23494 0.0566433 8.21521L0.0602804 8.19329C0.0633112 8.17513 0.0666452 8.15665 0.0699791 8.13817L0.0727069 8.12377V8.11594C0.0760409 8.09778 0.0796779 8.07899 0.0833149 8.06082L0.0863458 8.04517V8.04235C0.0899829 8.02418 0.093923 8.00539 0.0978631 7.98692V7.98097L0.100288 7.96938C0.103925 7.95216 0.108168 7.93399 0.113017 7.9127L0.116958 7.8961C0.121201 7.87825 0.125747 7.85883 0.131506 7.83503L0.133627 7.82658L0.135446 7.81969C0.140598 7.79871 0.146054 7.77741 0.152116 7.75424L0.153631 7.74829L0.15545 7.74171C0.161511 7.71885 0.166967 7.69849 0.172119 7.67908L0.176059 7.66467C0.181212 7.64619 0.187577 7.62427 0.193942 7.60204V7.59953L0.197276 7.58826C0.203943 7.56571 0.210611 7.54379 0.216673 7.52375L0.220007 7.51279C0.226675 7.49118 0.233949 7.468 0.242435 7.4417L0.244254 7.43575V7.43356C0.251831 7.40976 0.260014 7.38564 0.267289 7.36341L0.270926 7.35307C0.278503 7.33021 0.286686 7.30704 0.294263 7.28543L0.296082 7.28042L0.2979 7.27541C0.307296 7.2491 0.315176 7.2275 0.32245 7.20683L0.325481 7.19837C0.334271 7.17488 0.343363 7.15046 0.352759 7.12572L0.354577 7.12102C0.36367 7.09691 0.373672 7.07154 0.384886 7.04335L0.387008 7.03803C0.397313 7.01204 0.407011 6.98761 0.417316 6.96381L0.42065 6.95567C0.42944 6.93406 0.439139 6.91089 0.450959 6.88302L0.454596 6.87456C0.463689 6.85327 0.473691 6.82946 0.486723 6.80003L0.489451 6.79376C0.50309 6.76245 0.514607 6.73677 0.525215 6.71328C1.15685 5.31031 2.10127 4.33324 3.01628 3.38874L3.03447 3.36995C3.56669 2.82004 4.06345 2.3506 4.55293 1.93504C5.11276 1.45464 5.70926 1.0218 6.3366 0.640732C6.68534 0.42631 7.05955 0.259567 7.44984 0.144681C7.78431 0.0491533 8.12968 0.000490849 8.47669 0C8.94334 0.00348041 9.40637 0.0849101 9.84786 0.241136C10.2703 0.390274 10.6791 0.577755 11.0696 0.801385C11.6932 1.14742 12.2915 1.54013 12.8596 1.97637C13.3944 2.38793 13.8996 2.83891 14.3714 3.32579C14.8639 3.84056 15.3147 4.3962 15.7193 4.98713C16.0973 5.51471 16.4093 6.08953 16.6479 6.69794C16.8034 7.12342 16.9356 7.55763 17.0437 7.9985C17.1381 8.3817 17.1911 8.7745 17.202 9.16973C17.2094 9.55707 17.164 9.94355 17.0671 10.3178C16.9529 10.746 16.7906 11.1589 16.5837 11.5482C16.2888 12.1194 15.9439 12.6615 15.5532 13.1676C15.164 13.6643 14.7475 14.1374 14.3057 14.5846C13.8283 15.0778 13.3255 15.5438 12.7993 15.9807C12.2486 16.4389 11.6711 16.8614 11.0699 17.2459C10.3697 17.723 9.55263 17.9845 8.71401 18ZM10.0036 16.0051C9.65394 16.2178 9.27619 16.3769 8.88222 16.4774C9.27619 16.3769 9.65395 16.2179 10.0036 16.0051ZM4.85845 15.2868C4.89512 15.3124 4.933 15.3384 4.97089 15.3638C4.92906 15.3356 4.89239 15.3102 4.85845 15.2868ZM3.57881 14.1835L3.64337 14.2483L3.57881 14.1835ZM4.1962 7.87794L4.1762 7.92272V7.92616L4.15832 7.9675L4.1565 7.9722L4.13952 8.0126V8.01479V8.01698L4.12285 8.05832V8.06114L4.10618 8.10404V8.10592L4.09103 8.14632V8.14913V8.15164L4.07739 8.18953L4.07557 8.19423L4.06254 8.23181V8.23494V8.23745C4.0583 8.24935 4.05436 8.26219 4.04981 8.27628V8.27941C4.04466 8.29538 4.04072 8.30728 4.03738 8.31887L4.03556 8.32482L4.02496 8.36083L4.02284 8.36835C4.0194 8.37983 4.01607 8.39131 4.01283 8.4028V8.40687V8.41094L4.00344 8.44539L3.98798 8.45541L3.98616 8.46292L3.97889 8.49111L3.97677 8.49957C3.97404 8.51084 3.97131 8.52211 3.96858 8.53339L3.96646 8.54247L3.95949 8.57378L3.95767 8.58255L3.95525 8.59445L3.95131 8.61356V8.61857V8.62389L3.94615 8.64988V8.65489L3.94009 8.67118L3.93646 8.69122L3.93464 8.70187V8.70657V8.71314C3.93312 8.72285 3.93161 8.73225 3.93009 8.74195L3.92827 8.75385L3.92433 8.78204L3.92251 8.79394C3.92251 8.80333 3.92009 8.81242 3.91888 8.82181V8.82901V8.83622C3.91888 8.84498 3.91675 8.85375 3.91585 8.86252V8.87129V8.87912V8.88757C3.91585 8.89352 3.91585 8.89947 3.91433 8.90511V8.91983V8.92766C3.91433 8.93361 3.91433 8.93987 3.91433 8.94582C3.91433 8.95177 3.91433 8.9549 3.91433 8.9596C3.91433 8.9643 3.91433 8.97589 3.91281 8.98403C3.91281 8.98716 3.91281 8.99029 3.91281 8.99374V8.99937C3.91281 9.00751 3.91281 9.01566 3.91281 9.02411C3.91281 9.03257 3.91281 9.03601 3.91281 9.04196C3.91281 9.04885 3.91281 9.05606 3.91281 9.06295V9.08267C3.91281 9.0905 3.91281 9.09833 3.91281 9.10616V9.16284C3.91281 9.16942 3.91281 9.17631 3.91281 9.18289C3.91281 9.18946 3.91281 9.19698 3.91281 9.20418V9.22235C3.91281 9.22986 3.91281 9.23738 3.91281 9.24489V9.25397V9.26306C3.91281 9.26807 3.91281 9.27276 3.91281 9.27777V9.28529V9.295V9.30439C3.91281 9.31066 3.91281 9.31723 3.91281 9.3235V9.33414V9.34573V9.36014C3.91281 9.36859 3.91433 9.37705 3.91524 9.3855C3.91524 9.38895 3.91524 9.39208 3.91524 9.39552V9.40116C3.91524 9.40993 3.91706 9.41839 3.91827 9.42684V9.43342V9.44219L3.92009 9.45534L3.9216 9.46724L3.92373 9.48227V9.48979L3.92585 9.50419V9.51171V9.52079L3.92767 9.53144V9.54052V9.5496L3.92948 9.55994L3.93342 9.58123V9.58718L3.93555 9.59908V9.60503L3.93858 9.62132L3.941 9.63322C3.94282 9.64261 3.94474 9.6519 3.94676 9.66109L3.94949 9.67455L3.95373 9.69366L3.95555 9.70243V9.709V9.71495L3.96191 9.74251L3.96495 9.75535C3.96767 9.76662 3.9701 9.77602 3.97222 9.78447L3.97525 9.79637L3.98283 9.82487L3.98434 9.83051L3.98586 9.83615C3.98828 9.84554 3.99101 9.85462 3.99344 9.86402L3.99677 9.87623L4.00495 9.90473L4.00647 9.91005V9.91475L4.01586 9.94607V9.95076V9.95577L4.02071 9.97081L4.02587 9.98678L4.02799 9.99304V9.9968L4.03587 10.0209L4.03829 10.0281L4.04163 10.0378V10.0422L4.05102 10.0698L4.05405 10.0788L4.06618 10.1127L4.068 10.1174V10.1205L4.08103 10.1559L4.08345 10.1621L4.09709 10.1982L4.09891 10.2025L4.11103 10.2339L4.11315 10.2392V10.2414V10.2442C4.118 10.2564 4.12316 10.2689 4.12831 10.2815L4.13013 10.2862L4.14528 10.3231L4.1474 10.3284L4.15922 10.3563L4.16256 10.3641L4.16559 10.371L4.18165 10.4083V10.4105L4.18347 10.4146L4.20044 10.4528V10.4559V10.4581L4.20529 10.4687L4.21833 10.4979V10.4997L4.22469 10.5132L4.23742 10.5411C4.63317 11.2556 5.12743 11.9068 5.70466 12.4742C6.16268 12.9783 6.7028 13.3952 7.30041 13.7062C7.72784 13.965 8.21125 14.109 8.70643 14.1249C9.17227 14.1164 9.62617 13.9712 10.0152 13.7062C10.667 13.2861 11.27 12.7902 11.8125 12.2281C12.3166 11.7372 12.7436 11.1681 13.0782 10.5414C13.5752 9.5806 13.48 8.88162 13.1139 7.84819C12.8171 7.15913 12.3991 6.53304 11.881 6.00177C11.3391 5.44442 10.7212 4.97197 10.047 4.59943C9.61017 4.33045 9.11564 4.17755 8.60763 4.15442C8.19024 4.15899 7.78182 4.28007 7.42559 4.50485C6.75238 4.92478 6.13565 5.4345 5.59131 6.02088L5.58161 6.0309C5.01513 6.55452 4.54603 7.18069 4.19741 7.87856L4.1962 7.87794ZM3.38332 13.9846L3.49577 14.0999L3.38332 13.9846ZM13.2536 13.2988C13.1654 13.3927 13.0718 13.4911 12.9721 13.5944C12.8554 13.715 12.7357 13.8349 12.6141 13.953C12.7354 13.8349 12.8566 13.715 12.9721 13.5944C13.0724 13.4904 13.1657 13.3921 13.2536 13.2982V13.2988ZM15.0249 10.816C15.0037 10.8589 14.9818 10.9025 14.9594 10.946C14.8129 11.2299 14.6521 11.5057 14.4775 11.7721C14.6521 11.5057 14.8129 11.2299 14.9594 10.946C14.9821 10.9018 15.0028 10.8583 15.0252 10.8151L15.0249 10.816ZM15.2255 7.349C15.3352 7.6978 15.4156 8.05571 15.4659 8.41877C15.4163 8.05528 15.3359 7.697 15.2255 7.34806V7.349ZM12.5656 3.31953C12.7251 3.46734 12.8797 3.61881 13.0297 3.77393C13.4594 4.22298 13.8527 4.70771 14.2056 5.22325C14.359 5.44748 14.4975 5.667 14.6172 5.8762C14.172 5.11184 13.639 4.40596 13.0297 3.77393C12.8801 3.61839 12.7255 3.46693 12.5656 3.31953ZM9.80239 1.38669C9.91302 1.4418 10.0267 1.50193 10.1494 1.5702C10.4898 1.7581 10.8247 1.96604 11.1445 2.18431C10.8253 1.9651 10.4904 1.75966 10.1497 1.5702C10.0267 1.50318 9.91332 1.44055 9.80239 1.38669ZM4.39988 10.0156C4.34272 9.87814 4.29452 9.73691 4.25561 9.59282C4.20682 9.41402 4.17904 9.22981 4.17286 9.04416C4.18971 9.37952 4.26679 9.70873 4.40018 10.015L4.39988 10.0156Z" fill="#53B7D1"/>
    <path d="M27.1666 13.0727C27.5588 13.0727 27.9197 13.0646 28.2499 13.0485C28.58 13.0325 28.9206 12.9978 29.2716 12.9446C29.3022 12.9372 29.3342 12.9376 29.3646 12.946C29.3949 12.9543 29.4227 12.9703 29.4457 12.9924C29.4686 13.0146 29.4861 13.0422 29.4963 13.0729C29.5064 13.1037 29.509 13.1365 29.504 13.1685V14.3679C29.504 14.5063 29.4217 14.6025 29.2562 14.6557C28.8522 14.7849 28.4377 14.8758 28.0178 14.9275C27.5715 14.9894 27.1217 15.0215 26.6714 15.0234C25.9478 15.0438 25.2273 14.9189 24.5498 14.6554C23.9998 14.4311 23.5149 14.0644 23.1415 13.5907C22.7623 13.0885 22.4928 12.5074 22.3518 11.8873C22.1784 11.1388 22.0955 10.3709 22.1047 9.60127V8.86564C22.0957 8.09643 22.1763 7.32887 22.3447 6.57954C22.4803 5.96053 22.7443 5.37937 23.1187 4.87625C23.4881 4.4015 23.971 4.0345 24.5196 3.81149C25.1971 3.54798 25.9176 3.42303 26.6412 3.44355C27.4825 3.44981 28.3178 3.59009 29.1177 3.85943C29.1887 3.87773 29.2533 3.9166 29.3036 3.97151C29.3371 4.02345 29.3534 4.08521 29.3501 4.14751V5.29902C29.3551 5.33106 29.3522 5.36388 29.3421 5.39459C29.3319 5.4253 29.3144 5.45296 29.2914 5.47509C29.2685 5.49723 29.2407 5.51316 29.2104 5.5215C29.18 5.52985 29.148 5.53033 29.1174 5.52292C28.8283 5.48116 28.5135 5.44911 28.1732 5.42677C27.833 5.40444 27.4873 5.394 27.1361 5.39547C26.7118 5.38317 26.2893 5.45374 25.8903 5.60343C25.5634 5.73545 25.2807 5.9634 25.0775 6.25919C24.8549 6.59848 24.7046 6.98275 24.6365 7.38657C24.5419 7.91666 24.4979 8.45507 24.5048 8.99405V9.48979C24.4977 10.029 24.5444 10.5676 24.6439 11.0969C24.7163 11.4998 24.872 11.8817 25.1006 12.2165C25.3116 12.5091 25.5989 12.7337 25.9288 12.8641C26.3253 13.0125 26.7452 13.0831 27.1669 13.0721L27.1666 13.0727ZM31.2997 3.89261C31.2997 3.72194 31.3766 3.63675 31.5317 3.63675H33.4509C33.4845 3.63178 33.519 3.63498 33.5512 3.64608C33.5835 3.65718 33.6127 3.67588 33.6368 3.70071C33.6608 3.72553 33.6787 3.75578 33.6895 3.78909C33.7002 3.8224 33.7035 3.85785 33.6986 3.89261V12.1601C33.6815 12.4007 33.7354 12.6409 33.8534 12.8491C33.9349 12.9352 34.0347 13.0003 34.145 13.0392C34.2552 13.0781 34.3727 13.0896 34.488 13.073H38.1555C38.1892 13.068 38.2234 13.0712 38.2556 13.0823C38.2878 13.0934 38.3171 13.1121 38.3411 13.1369C38.3652 13.1618 38.3834 13.192 38.3941 13.2254C38.4049 13.2587 38.4078 13.2941 38.403 13.3288V14.5123C38.403 14.7148 38.3155 14.8214 38.1402 14.832C37.5728 14.8853 36.9225 14.9306 36.1896 14.9679C35.4568 15.0053 34.6983 15.024 33.9141 15.024C33.5004 15.0318 33.087 14.9888 32.6831 14.8959C32.3846 14.8295 32.106 14.6898 31.8706 14.4888C31.6596 14.2945 31.5065 14.0422 31.4293 13.7613C31.3342 13.4019 31.2901 13.0302 31.2982 12.6577L31.2997 3.89261ZM42.2425 14.5599C42.2476 14.5968 42.2444 14.6345 42.233 14.6699C42.2216 14.7053 42.2023 14.7374 42.1768 14.7638C42.1512 14.7902 42.1202 14.81 42.0859 14.8218C42.0517 14.8336 42.0154 14.837 41.9797 14.8317H40.1064C40.0706 14.837 40.0344 14.8336 40.0001 14.8218C39.9659 14.81 39.9348 14.7902 39.9092 14.7638C39.8837 14.7374 39.8644 14.7053 39.853 14.6699C39.8416 14.6345 39.8381 14.5968 39.8432 14.5599V3.92453C39.8432 3.73267 39.931 3.63675 40.1064 3.63675H41.9797C42.1552 3.63675 42.2427 3.73267 42.2425 3.92453V14.5599ZM49.4864 13.0724C49.8788 13.0724 50.2401 13.0643 50.5703 13.0482C50.9004 13.0322 51.2409 12.9975 51.5917 12.9443C51.6223 12.9368 51.654 12.9374 51.6843 12.9457C51.7147 12.9541 51.7428 12.97 51.7657 12.9921C51.7887 13.0143 51.8062 13.0419 51.8163 13.0726C51.8265 13.1033 51.8291 13.1362 51.824 13.1682V14.3676C51.824 14.5062 51.7416 14.6022 51.5763 14.6554C51.1724 14.7845 50.7577 14.8755 50.3379 14.9272C49.8915 14.9891 49.4419 15.0212 48.9915 15.0231C48.2679 15.0435 47.5473 14.9185 46.8699 14.6551C46.3198 14.4308 45.8347 14.0641 45.4613 13.5904C45.0827 13.088 44.8139 12.5069 44.6734 11.887C44.4999 11.1385 44.4166 10.3706 44.4257 9.60096V8.86534C44.4167 8.09612 44.4973 7.32856 44.6657 6.57923C44.8014 5.96027 45.0657 5.37913 45.44 4.87595C45.8094 4.4012 46.2923 4.03419 46.8409 3.81119C47.5183 3.5477 48.2389 3.42272 48.9625 3.4432C49.8039 3.44952 50.6392 3.58979 51.4393 3.85909C51.5102 3.87745 51.5743 3.91636 51.6246 3.97121C51.658 4.02315 51.6744 4.0849 51.671 4.14721V5.29871C51.6761 5.33074 51.6735 5.36357 51.6633 5.39428C51.6532 5.425 51.636 5.45264 51.613 5.47479C51.59 5.49693 51.562 5.51289 51.5316 5.52124C51.5013 5.52958 51.4695 5.53004 51.439 5.52261C51.1498 5.48086 50.835 5.44881 50.4945 5.42647C50.154 5.40413 49.8084 5.3937 49.4577 5.39516C49.0333 5.38284 48.6103 5.4534 48.2113 5.60312C47.8843 5.73515 47.602 5.96309 47.3988 6.25888C47.1765 6.59831 47.0261 6.98252 46.9578 7.38626C46.8634 7.91639 46.8192 8.45474 46.8261 8.99371V9.48945C46.8189 10.0287 46.8654 10.5672 46.9649 11.0966C47.0372 11.4995 47.1934 11.8815 47.4222 12.2162C47.6331 12.5089 47.9201 12.7336 48.25 12.8638C48.6465 13.0122 49.0663 13.0828 49.4879 13.0718L49.4864 13.0724ZM61.3896 3.63645C61.424 3.63302 61.4584 3.64031 61.4888 3.65739C61.5191 3.67447 61.5439 3.70056 61.5598 3.73228C61.5747 3.76627 61.5797 3.80396 61.5743 3.84085C61.5689 3.87774 61.5535 3.91225 61.5296 3.9402L58.217 9.02597L61.9629 14.5436C61.983 14.569 61.9956 14.5997 61.9996 14.6321C62.0037 14.6646 61.9991 14.6976 61.986 14.7274C61.9715 14.7625 61.9463 14.7917 61.9141 14.8105C61.882 14.8293 61.8447 14.8366 61.8081 14.8314H59.6259C59.5358 14.836 59.4458 14.8196 59.3627 14.7835C59.2914 14.7422 59.2326 14.6813 59.1928 14.6075L56.0193 9.61755V14.5593C56.0244 14.5962 56.0213 14.6338 56.0098 14.6691C55.9984 14.7045 55.9791 14.7367 55.9536 14.763C55.9281 14.7894 55.897 14.8092 55.8627 14.8211C55.8285 14.8329 55.7922 14.8363 55.7565 14.8311H53.8829C53.8472 14.8363 53.8109 14.8329 53.7766 14.8211C53.7424 14.8093 53.7113 14.7894 53.6858 14.763C53.6603 14.7367 53.6412 14.7045 53.6298 14.6691C53.6184 14.6338 53.615 14.5962 53.6201 14.5593V3.92392C53.6201 3.73205 53.7077 3.63614 53.8829 3.63614H55.7565C55.9317 3.63614 56.0191 3.73205 56.0193 3.92392V8.43348L58.9756 3.82747C59.0152 3.76777 59.0686 3.71904 59.1307 3.68557C59.1928 3.65209 59.2619 3.63488 59.332 3.63549L61.3896 3.63645Z" fill="#333333"/>
</svg>
