<svg width="112" height="26" viewBox="0 0 112 26" fill="none" xmlns="http://www.w3.org/2000/svg">
<g clip-path="url(#clip0_124_461)">
<mask id="mask0_124_461" style="mask-type:luminance" maskUnits="userSpaceOnUse" x="101" y="0" width="9" height="9">
<path d="M101.258 0H109.375V8.0112H101.258V0Z" fill="white"/>
</mask>
<g mask="url(#mask0_124_461)">
<path d="M105.372 2.14731C105.385 2.25883 105.406 2.36921 105.437 2.47732C105.468 2.58542 105.508 2.69011 105.557 2.79139C105.606 2.89267 105.663 2.9894 105.728 3.081C105.793 3.17261 105.866 3.25852 105.946 3.33761C106.025 3.41727 106.111 3.48953 106.204 3.55439C106.296 3.61926 106.393 3.67615 106.495 3.72509C106.597 3.77345 106.702 3.81328 106.81 3.844C106.919 3.87473 107.029 3.89635 107.141 3.90886C107.856 3.97942 108.573 4.01185 109.291 4.00616C108.573 4.00047 107.856 4.0329 107.141 4.10346C107.029 4.11597 106.919 4.13759 106.81 4.16832C106.702 4.19904 106.597 4.23887 106.495 4.28723C106.393 4.33617 106.296 4.39306 106.204 4.45793C106.111 4.52279 106.025 4.59505 105.946 4.67471C105.866 4.7538 105.794 4.83971 105.728 4.93132C105.663 5.02292 105.606 5.11965 105.557 5.22093C105.508 5.32221 105.468 5.42747 105.437 5.53557C105.406 5.64368 105.385 5.75349 105.372 5.86501C105.301 6.5768 105.268 7.28973 105.274 8.00493C105.28 7.28973 105.248 6.5768 105.176 5.86501C105.164 5.75349 105.142 5.64368 105.112 5.53557C105.08 5.42747 105.04 5.32221 104.992 5.22093C104.943 5.11965 104.886 5.02292 104.821 4.93132C104.756 4.83971 104.683 4.7538 104.603 4.67471C104.523 4.59505 104.437 4.52279 104.345 4.45793C104.253 4.39306 104.156 4.33617 104.054 4.28723C103.952 4.23887 103.847 4.19904 103.738 4.16832C103.63 4.13759 103.519 4.11597 103.407 4.10346C102.692 4.0329 101.976 4.00047 101.258 4.00616C101.976 4.01185 102.692 3.97942 103.407 3.90886C103.519 3.89635 103.63 3.87473 103.738 3.844C103.847 3.81328 103.952 3.77345 104.054 3.72509C104.156 3.67615 104.253 3.61926 104.345 3.55439C104.437 3.48953 104.523 3.41727 104.603 3.33761C104.683 3.25852 104.756 3.17261 104.821 3.081C104.886 2.9894 104.943 2.89267 104.992 2.79139C105.04 2.69011 105.08 2.58542 105.112 2.47732C105.142 2.36921 105.164 2.25883 105.176 2.14731C105.248 1.43609 105.28 0.72259 105.274 0.00738525C105.268 0.72259 105.301 1.43609 105.372 2.14731Z" fill="#015486"/>
</g>
<mask id="mask1_124_461" style="mask-type:luminance" maskUnits="userSpaceOnUse" x="107" y="3" width="5" height="6">
<path d="M107.771 3.93277H111.838V8.06127H107.771V3.93277Z" fill="white"/>
</mask>
<g mask="url(#mask1_124_461)">
<path d="M109.856 5.08893C109.869 5.20272 109.9 5.3114 109.95 5.41495C110 5.51794 110.065 5.61011 110.147 5.69148C110.228 5.77227 110.321 5.8377 110.424 5.8872C110.529 5.93671 110.637 5.968 110.752 5.98052C111.114 6.01636 111.476 6.03229 111.839 6.02945C111.476 6.0266 111.114 6.0431 110.752 6.07895C110.637 6.09147 110.529 6.12219 110.424 6.17169C110.321 6.22119 110.228 6.28663 110.147 6.36799C110.065 6.44879 110 6.54096 109.95 6.64451C109.9 6.7475 109.869 6.85617 109.856 6.97054C109.82 7.33013 109.804 7.69143 109.807 8.0533C109.81 7.69143 109.794 7.33013 109.757 6.97054C109.745 6.85617 109.714 6.7475 109.664 6.64451C109.614 6.54096 109.549 6.44879 109.467 6.36799C109.386 6.28663 109.293 6.22119 109.189 6.17169C109.086 6.12219 108.976 6.09147 108.862 6.07895C108.501 6.0431 108.138 6.0266 107.774 6.02945C108.138 6.03229 108.501 6.01636 108.862 5.98052C108.976 5.968 109.086 5.93671 109.189 5.8872C109.293 5.8377 109.386 5.77227 109.467 5.69148C109.549 5.61011 109.614 5.51794 109.664 5.41495C109.714 5.3114 109.745 5.20272 109.757 5.08893C109.794 4.72877 109.81 4.36803 109.807 4.00616C109.804 4.36803 109.82 4.72877 109.856 5.08893Z" fill="#015486"/>
</g>
<path d="M108.329 1.09584C108.337 1.16526 108.355 1.23183 108.385 1.29499C108.416 1.35814 108.456 1.41447 108.506 1.46397C108.556 1.51347 108.612 1.5533 108.675 1.58346C108.739 1.61361 108.805 1.63239 108.875 1.64036C109.096 1.66198 109.317 1.67222 109.54 1.67051C109.317 1.66824 109.096 1.67848 108.875 1.7001C108.805 1.70806 108.739 1.72684 108.675 1.757C108.612 1.78715 108.556 1.82755 108.506 1.87648C108.456 1.92598 108.416 1.98231 108.385 2.04547C108.355 2.10862 108.337 2.17519 108.329 2.24461C108.307 2.46424 108.297 2.685 108.298 2.90576C108.3 2.685 108.29 2.46424 108.268 2.24461C108.261 2.17519 108.241 2.10862 108.211 2.04547C108.181 1.98231 108.141 1.92598 108.091 1.87648C108.041 1.82755 107.985 1.78715 107.921 1.757C107.858 1.72684 107.791 1.70806 107.721 1.7001C107.501 1.67848 107.279 1.66824 107.058 1.67051C107.279 1.67222 107.501 1.66198 107.721 1.64036C107.791 1.63239 107.858 1.61361 107.921 1.58346C107.984 1.5533 108.041 1.5129 108.091 1.46397C108.141 1.41447 108.18 1.35814 108.211 1.29499C108.241 1.23183 108.26 1.16526 108.268 1.09584C108.29 0.876219 108.3 0.655456 108.298 0.434692C108.297 0.655456 108.307 0.876219 108.329 1.09584Z" fill="#015486"/>
<path d="M3.03038 20.39H6.45746V11.2471L10.1449 16.6422H12.5312L16.2186 11.2688V20.39H19.6457V5.22452H16.7393L11.3594 13.0889L5.95844 5.22452H3.03038V20.39Z" fill="#015486"/>
<path d="M26.0418 20.6068C27.7342 20.6068 29.1225 20.0652 30.0983 19.0683L30.4669 20.3901H32.9182V13.5436C32.9182 10.5325 30.8793 8.71237 27.4739 8.71237C24.5669 8.71237 22.658 10.099 22.2461 12.5689H25.4129C25.6083 11.7672 26.4326 11.2255 27.4956 11.2255C28.7967 11.2255 29.6865 11.9624 29.6865 13.0889V13.609H25.565C23.2003 13.609 21.6822 14.974 21.6822 17.0752C21.6822 19.2635 23.3524 20.6068 26.0418 20.6068ZM24.9361 16.9455C24.9361 16.1654 25.5866 15.667 26.5841 15.667H29.7081C29.6426 17.2055 28.4497 18.245 26.8011 18.245C25.6732 18.245 24.9361 17.725 24.9361 16.9455Z" fill="#015486"/>
<path d="M40.6821 25.1996C44.3262 25.1996 46.647 23.1633 46.647 19.7619V9.01564H44.1958L43.8488 10.2725C42.8514 9.27566 41.4631 8.71237 39.8362 8.71237C36.6255 8.71237 34.3264 11.0742 34.3264 14.3885C34.3264 17.725 36.6255 20.0868 39.8362 20.0868C41.2028 20.0868 42.4173 19.6749 43.3498 18.9602V19.7619C43.3498 21.6031 42.4173 22.5351 40.6172 22.5351C39.2505 22.5351 38.3391 21.9718 38.101 20.975H34.8904C35.1723 23.5963 37.3849 25.1996 40.6821 25.1996ZM37.5803 14.3885C37.5803 12.6554 38.7948 11.4423 40.53 11.4423C42.2652 11.4423 43.5019 12.6554 43.5019 14.3885C43.5019 16.1438 42.2652 17.3568 40.53 17.3568C38.7948 17.3568 37.5803 16.1438 37.5803 14.3885Z" fill="#015486"/>
<path d="M49.0964 20.39H52.3936V9.01561H49.0964V20.39ZM48.619 5.33262C48.619 6.54568 49.4866 7.39061 50.745 7.39061C52.0028 7.39061 52.8704 6.54568 52.8704 5.33262C52.8704 4.11956 52.0028 3.27463 50.745 3.27463C49.4866 3.27463 48.619 4.11956 48.619 5.33262Z" fill="#015486"/>
<path d="M60.2447 20.6933C63.4553 20.6933 65.8627 18.8083 66.4705 15.8189H63.2599C62.8042 17.0536 61.6762 17.8553 60.288 17.8553C58.5095 17.8553 57.2733 16.5552 57.2733 14.6923C57.2733 12.8289 58.5095 11.5288 60.288 11.5288C61.5896 11.5288 62.6526 12.2224 63.1949 13.3706H66.3617C65.841 10.5542 63.412 8.71237 60.2447 8.71237C56.6005 8.71237 54.0194 11.2039 54.0194 14.6923C54.0194 18.2018 56.5789 20.6933 60.2447 20.6933Z" fill="#015486"/>
<path d="M75.8181 20.6933C79.2235 20.6933 81.6309 18.2234 81.6309 14.6923C81.6309 11.2039 79.2235 8.71236 75.8181 8.71236C74.4082 8.71236 73.1715 9.14592 72.2173 9.9038V4.35797H68.9201V20.3901H71.3713L71.7399 19.0899C72.7596 20.1084 74.1695 20.6933 75.8181 20.6933ZM72.0868 14.6923C72.0868 12.8505 73.3885 11.5288 75.2325 11.5288C77.0976 11.5288 78.3776 12.8505 78.3776 14.6923C78.3776 16.5551 77.0976 17.8553 75.2325 17.8553C73.3885 17.8553 72.0868 16.5551 72.0868 14.6923Z" fill="#8FD8FF"/>
<path d="M88.8525 20.6933C92.6265 20.6933 95.2298 18.245 95.2298 14.6923C95.2298 11.1607 92.6265 8.71237 88.8525 8.71237C85.0562 8.71237 82.4535 11.1607 82.4535 14.6923C82.4535 18.245 85.0562 20.6933 88.8525 20.6933ZM85.7074 14.6923C85.7074 12.8289 87.0085 11.5288 88.8525 11.5288C90.6965 11.5288 91.9759 12.8289 91.9759 14.6923C91.9759 16.5552 90.6965 17.8553 88.8525 17.8553C87.0085 17.8553 85.7074 16.5552 85.7074 14.6923Z" fill="#8FD8FF"/>
<path d="M102.343 20.3901H104.425V17.5304H103.058C101.757 17.5304 101.149 16.9017 101.149 15.5805V11.7023H104.273V9.01562H101.149V6.06946H98.5899L98.3945 7.54254C98.2214 8.71236 97.8961 9.01562 96.6594 9.01562H95.6402V11.7023H97.8522V16.0789C97.8522 18.8515 99.4575 20.3901 102.343 20.3901Z" fill="#8FD8FF"/>
</g>
<defs>
<clipPath id="clip0_124_461">
<rect width="112" height="26" fill="white"/>
</clipPath>
</defs>
</svg>
