<svg width="56" height="16" viewBox="0 0 56 16" fill="none" xmlns="http://www.w3.org/2000/svg">
    <path d="M9.22366 1.58C9.02816 1.26807 8.77322 0.996399 8.47294 0.780002C8.16965 0.575597 7.83736 0.416542 7.48685 0.308002C7.10601 0.185186 6.7128 0.103376 6.3141 0.0640016C5.84748 0.019168 5.37886 -0.00219301 4.91004 1.58092e-06H0.852067C0.758002 -0.00875658 0.663111 0.00118338 0.573014 0.0292326C0.482918 0.0572818 0.399448 0.10287 0.327551 0.163296C0.255654 0.223722 0.196791 0.297757 0.15445 0.381016C0.112109 0.464274 0.0871499 0.555062 0.0810525 0.648002C0.0810525 0.648002 0.0810525 0.672002 0.0810525 0.684002V7.18C0.643658 8.36999 1.57795 9.35121 2.74714 9.98V8.676C2.73823 8.57539 2.74955 8.47403 2.78043 8.37773C2.81132 8.28143 2.86117 8.19208 2.92713 8.1148C2.99309 8.03752 3.07387 7.97382 3.16485 7.92735C3.25582 7.88089 3.35519 7.85256 3.45728 7.844H4.67468C6.33574 7.844 7.60318 7.50134 8.47699 6.816C9.35081 6.13067 9.79448 5.11467 9.80801 3.768C9.80943 3.37992 9.7631 2.99309 9.67004 2.616C9.57727 2.24973 9.42664 1.90013 9.22366 1.58ZM6.84569 4.92C6.70416 5.16004 6.4938 5.35348 6.24105 5.476C5.96719 5.60494 5.67128 5.68227 5.36859 5.704C5.0361 5.74481 4.70133 5.76485 4.36627 5.764H3.19757C2.91757 5.764 2.74308 5.54 2.74308 5.212V2.532C2.73905 2.4732 2.74824 2.41425 2.77001 2.35935C2.79178 2.30446 2.82559 2.25499 2.86901 2.21448C2.91244 2.17397 2.96441 2.14342 3.02121 2.12501C3.07801 2.1066 3.13823 2.10079 3.19757 2.108H4.36627C4.74501 2.108 5.10212 2.11867 5.43757 2.14C5.73654 2.15414 6.02997 2.22476 6.30192 2.348C6.55213 2.45781 6.76086 2.64256 6.89844 2.876C7.0538 3.18901 7.12506 3.53608 7.1054 3.884C7.11329 4.24463 7.02365 4.60082 6.84569 4.916V4.92ZM2.7512 10.372C1.75048 10.0161 0.839636 9.45122 0.0810525 8.716V11.856C0.0725546 11.9158 0.0764141 11.9767 0.092399 12.035C0.108384 12.0933 0.136164 12.1478 0.17407 12.1953C0.211976 12.2427 0.259224 12.2821 0.312975 12.3111C0.366726 12.3401 0.425869 12.3581 0.48685 12.364H2.32105C2.80801 12.364 2.7512 11.852 2.7512 11.852V10.372ZM27.9593 3.42H26.3767C26.2257 3.41026 26.076 3.45351 25.9542 3.54209C25.8324 3.63067 25.7463 3.75887 25.7112 3.904L23.8729 8.896C23.8729 8.896 22.2497 4.348 22.128 3.996C22.0938 3.83358 22.0044 3.68755 21.8745 3.58207C21.7446 3.4766 21.5821 3.41801 21.4138 3.416H19.957C19.4376 3.416 19.4376 3.816 19.5066 3.972C19.5755 4.128 21.568 9.512 22.3471 11.572C22.4698 11.8256 22.5559 12.0949 22.6028 12.372C22.5523 12.6455 22.4475 12.9065 22.2944 13.14C22.2352 13.239 22.1673 13.3327 22.0915 13.42C23.5929 12.98 25.3379 11.376 26.2144 9.644C27.099 7.244 28.2637 4.044 28.3164 3.88C28.3732 3.628 28.3732 3.42 27.9593 3.42ZM20.9066 13.908C20.7708 13.9044 20.6354 13.8937 20.5008 13.876C20.3344 13.852 20.0179 13.876 20.0179 14.156V15.356C20.0179 15.816 20.2451 15.848 20.3628 15.88C20.7386 15.9613 21.1224 16.0015 21.5071 16C21.9618 16.0118 22.4131 15.9201 22.826 15.732C23.2037 15.5439 23.5391 15.2827 23.8121 14.964C24.1216 14.6151 24.3835 14.2278 24.5912 13.812C24.8157 13.3693 25.0295 12.88 25.2324 12.344L25.4677 11.708C24.997 12.168 22.9193 14.1 20.9066 13.908ZM18.5124 4.856C18.4261 4.65388 18.3084 4.46628 18.1634 4.3C18.0167 4.14598 17.8503 4.0115 17.6683 3.9C17.4717 3.76803 17.2624 3.65549 17.0434 3.564C16.8204 3.47883 16.5911 3.41063 16.3576 3.36C16.0903 3.30172 15.819 3.26295 15.546 3.244C15.2538 3.21467 14.9265 3.2 14.564 3.2C12.1454 3.2 10.7684 3.952 10.4329 5.456C10.4186 5.51206 10.4168 5.57051 10.4276 5.62733C10.4384 5.68414 10.4616 5.73797 10.4955 5.78511C10.5295 5.83226 10.5734 5.87159 10.6242 5.9004C10.6751 5.92921 10.7316 5.94681 10.79 5.952H12.2793C12.6851 5.952 12.6851 5.828 12.8393 5.484C12.9069 5.29672 13.0281 5.13277 13.1883 5.012C13.5688 4.76989 14.0189 4.65618 14.4706 4.688C14.8919 4.64556 15.3151 4.74878 15.6677 4.98C15.9367 5.22748 16.0956 5.56961 16.11 5.932C16.11 6.428 15.9558 6.756 15.3309 6.756C13.8497 6.704 12.259 6.868 11.3622 7.376C10.9207 7.64163 10.5584 8.01759 10.3118 8.46576C10.0652 8.91392 9.94321 9.41838 9.95815 9.928C9.94795 10.325 10.0298 10.719 10.1976 11.08C10.3556 11.3937 10.5847 11.6675 10.8671 11.88C11.1636 12.1184 11.506 12.2952 11.8735 12.4C12.2888 12.5108 12.7175 12.5647 13.1477 12.56C13.7264 12.5689 14.303 12.4879 14.8561 12.32C15.345 12.1225 15.8071 11.8659 16.2318 11.556V11.836C16.2318 12.112 16.317 12.36 16.6376 12.36H18.3622C18.7112 12.36 18.7924 12.116 18.7924 11.812V6.576C18.7944 6.24942 18.7714 5.92315 18.7234 5.6C18.6851 5.34424 18.6142 5.09426 18.5124 4.856ZM16.1547 10C16.1547 10 15.7083 10.92 14.1257 10.92C13.7462 10.9372 13.371 10.835 13.0544 10.628C12.915 10.5213 12.8049 10.382 12.7341 10.2228C12.6632 10.0635 12.6338 9.8893 12.6486 9.716C12.6311 9.48326 12.6858 9.25078 12.8054 9.04935C12.925 8.84792 13.1038 8.68704 13.3182 8.588C13.9583 8.34557 14.6415 8.23266 15.3268 8.256C15.4317 8.2404 15.5388 8.24738 15.6407 8.27646C15.7426 8.30553 15.8369 8.35602 15.9171 8.42443C15.9973 8.49285 16.0615 8.57758 16.1053 8.67279C16.1491 8.76801 16.1715 8.87145 16.1709 8.976L16.1547 10Z" fill="#333333"/>
    <path d="M55.594 6.632C55.7939 6.94897 55.8998 7.31476 55.8998 7.688C55.8998 8.06124 55.7939 8.42703 55.594 8.744C55.1882 9.352 52.9766 11.68 52.2461 12.428C51.6131 13.076 50.7569 13.732 49.9087 13.732H32.3418C29.9638 13.732 29.8218 12.932 29.8218 11.148V3.872C29.8218 2.044 30.3696 1.512 31.9969 1.512H49.9493C50.7893 1.512 51.54 1.936 52.3841 2.792C53.1227 3.524 55.3018 6.2 55.594 6.632Z" fill="#33CCCC"/>
    <path d="M33.8108 4.324V4.28C33.8108 4.044 33.8108 3.816 33.405 3.816H31.932C31.587 3.816 31.5708 4 31.5708 4.288V6.208C32.1519 5.41063 32.9205 4.76414 33.8108 4.324Z" fill="white"/>
    <path d="M43.6757 11.268V11.164V6.532C43.6757 4.59333 42.8073 3.624 41.0705 3.624C40.5871 3.62965 40.1149 3.76818 39.707 4.024C39.2576 4.30033 38.8561 4.64607 38.518 5.048C38.365 4.61358 38.0676 4.24287 37.674 3.996C37.2264 3.75282 36.7197 3.63522 36.2091 3.656C35.458 3.65879 34.7289 3.9063 34.1354 4.36C34.0056 4.488 31.5667 6.36 31.5667 8.312V11.276C31.5667 11.368 31.518 11.728 31.9279 11.728H33.4577C33.9325 11.728 33.8879 11.42 33.8879 11.292V6.492C34.1435 6.152 34.667 5.34 35.5314 5.34C35.6696 5.3276 35.8087 5.35184 35.9343 5.41021C36.0599 5.46858 36.1673 5.55896 36.2456 5.672C36.4191 6.01351 36.4949 6.39521 36.4647 6.776V10.516V11.284C36.4647 11.376 36.416 11.736 36.8259 11.736H38.3395C38.8143 11.736 38.7696 11.428 38.7696 11.3V11.196V6.476C39.0456 6.136 39.5812 5.324 40.4131 5.324C40.553 5.31272 40.6934 5.33737 40.8207 5.39556C40.948 5.45375 41.0579 5.54348 41.1395 5.656C41.3158 5.99665 41.3931 6.37875 41.3627 6.76V10.5V11.268C41.3627 11.36 41.314 11.72 41.7238 11.72H43.2537C43.7325 11.696 43.6757 11.392 43.6757 11.268Z" fill="white"/>
    <path d="M52.1126 9.384C51.8527 10.073 51.3763 10.6623 50.753 11.0659C50.1297 11.4695 49.3919 11.6664 48.6471 11.628C46.3097 11.628 44.7515 10.06 44.7515 7.708C44.7515 5.356 46.3747 3.708 48.566 3.708C50.7573 3.708 52.2181 5.204 52.3115 7.616C52.3115 7.924 52.2344 8.196 51.8407 8.196H46.8819C46.9144 9.488 47.5433 10.196 48.6634 10.196C48.9607 10.2033 49.254 10.1266 49.5085 9.97496C49.7631 9.82328 49.9683 9.60295 50.0999 9.34C50.1517 9.26559 50.2215 9.20506 50.3029 9.16386C50.3844 9.12266 50.475 9.10209 50.5665 9.104H51.8448C51.8832 9.10221 51.9214 9.10896 51.9568 9.12375C51.9921 9.13853 52.0236 9.16098 52.049 9.18941C52.0743 9.21785 52.0928 9.25155 52.1031 9.288C52.1135 9.32446 52.1153 9.36274 52.1086 9.4L52.1126 9.384ZM48.5741 5.2C47.6448 5.2 47.0158 5.836 46.8778 6.884H50.2054C50.1202 5.968 49.617 5.2 48.5741 5.2Z" fill="white"/>
</svg>
